<?xml version="1.0" standalone="no"?>
<!DOCTYPE svg PUBLIC "-//W3C//DTD SVG 20010904//EN"
 "http://www.w3.org/TR/2001/REC-SVG-20010904/DTD/svg10.dtd">
<svg version="1.0" xmlns="http://www.w3.org/2000/svg"
 width="1000.000000pt" height="1000.000000pt" viewBox="0 0 1000.000000 1000.000000"
 preserveAspectRatio="xMidYMid meet">
<metadata>
Created by potrace 1.11, written by Peter Selinger 2001-2013
</metadata>
<g transform="translate(0.000000,1000.000000) scale(0.100000,-0.100000)"
fill="#000000" stroke="none">
<path d="M1690 9986 c-115 -25 -204 -96 -256 -202 l-29 -59 0 -4725 0 -4725
32 -66 c39 -79 102 -140 181 -177 l57 -27 3320 0 3320 0 65 31 c119 56 190
152 210 281 7 47 10 1531 8 4728 l-3 4660 -24 60 c-33 82 -124 173 -206 206
l-60 24 -3280 2 c-2562 1 -3292 -1 -3335 -11z m1266 -399 c3 -3 -2 -19 -11
-37 -9 -18 -27 -66 -40 -107 -13 -41 -38 -99 -54 -128 -26 -46 -30 -61 -24
-100 5 -41 2 -50 -35 -103 -42 -61 -67 -130 -77 -223 l-7 -56 -50 -12 c-77
-17 -88 -15 -88 17 0 15 12 72 26 127 14 55 34 138 44 183 28 124 83 267 160
412 9 17 26 31 40 33 30 6 109 2 116 -6z m778 7 c14 -6 13 -12 -11 -53 -14
-25 -39 -64 -55 -85 -15 -21 -28 -51 -28 -65 0 -16 -17 -47 -44 -80 -43 -52
-145 -259 -219 -445 -29 -72 -34 -91 -23 -101 11 -11 18 -10 38 3 44 30 56 48
56 86 0 29 7 44 34 69 33 32 88 110 88 125 0 5 29 37 64 73 49 50 64 72 69
104 5 28 17 49 47 76 22 20 40 42 40 48 0 6 -16 11 -36 11 -69 0 -37 31 104
101 172 87 173 88 125 110 l-38 18 55 0 c30 -1 47 -3 38 -6 -20 -5 -20 -5 -12
-26 5 -14 10 -14 42 -1 20 8 46 20 57 27 15 9 179 12 685 13 837 0 1733 -8
1701 -16 -14 -3 -26 -11 -29 -18 -5 -16 10 -15 27 1 10 8 12 8 7 0 -10 -17 9
-24 37 -14 14 5 28 7 32 3 4 -4 19 -7 33 -8 57 -2 149 -17 180 -29 17 -8 32
-11 32 -8 0 3 9 -2 20 -12 11 -10 20 -16 21 -14 5 29 3 79 -4 79 -4 0 -6 4 -3
9 4 5 0 12 -6 14 -13 5 498 10 1059 10 254 0 274 -1 294 -19 l21 -19 -3 -845
c-1 -465 -5 -988 -9 -1163 -7 -312 -8 -318 -30 -339 -13 -12 -25 -17 -29 -11
-3 6 -24 20 -46 31 -22 12 -62 42 -89 66 -27 25 -63 48 -80 52 -17 3 -50 15
-73 25 -23 11 -48 19 -55 19 -23 0 -78 39 -89 62 -8 19 19 110 151 508 111
336 160 495 158 520 l-3 35 -238 58 c-219 54 -240 57 -256 43 -19 -17 -41 -21
-41 -8 0 31 -37 44 -292 102 -147 33 -276 60 -288 60 -11 0 -23 -6 -26 -14 -3
-8 -15 -17 -27 -20 -13 -3 -32 -14 -43 -25 -20 -18 -21 -27 -16 -143 l5 -125
-75 -12 c-40 -6 -98 -23 -127 -36 -29 -14 -56 -23 -61 -20 -10 6 -17 45 -35
183 -22 170 -45 295 -57 309 -8 10 -58 13 -199 13 -171 0 -189 -2 -201 -18
-27 -39 -59 -45 -228 -50 -145 -4 -167 -7 -183 -23 -10 -10 -31 -25 -46 -34
-22 -11 -31 -24 -36 -55 -4 -22 -10 -42 -15 -45 -5 -3 -32 9 -60 27 -29 18
-80 41 -115 53 -34 11 -64 24 -66 29 -2 5 52 40 121 77 90 49 125 73 124 86 0
24 -221 353 -236 353 -6 0 -20 -8 -30 -17 -11 -10 -35 -26 -53 -38 -19 -11
-125 -125 -236 -254 l-202 -234 18 -36 c11 -20 20 -39 22 -42 1 -4 -6 -14 -16
-23 -18 -17 -24 -13 -140 91 -242 215 -230 207 -255 185 -31 -29 -69 -47 -73
-35 -2 6 -9 18 -16 27 -11 15 -38 8 -287 -73 -209 -67 -289 -98 -334 -127
l-59 -39 6 -130 c6 -145 11 -165 38 -165 43 0 15 -18 -37 -24 -31 -3 -83 -16
-116 -27 -34 -11 -64 -17 -68 -12 -4 4 -12 44 -18 88 -9 67 -9 82 3 91 10 7
15 29 15 58 0 26 5 57 11 68 19 35 -4 42 -54 16 -38 -21 -43 -27 -35 -44 9
-18 8 -18 -7 1 -44 55 -95 101 -158 143 -39 25 -65 48 -59 50 7 2 12 11 12 20
0 10 12 35 25 57 31 49 215 421 215 433 0 5 15 29 33 53 39 54 93 139 124 199
13 24 29 48 36 52 14 9 89 11 111 2z m3130 -90 c3 -8 2 -12 -4 -9 -6 3 -10 10
-10 16 0 14 7 11 14 -7z m-1520 -486 l47 -63 -157 -78 c-86 -43 -158 -76 -161
-73 -3 3 39 58 93 122 55 64 105 125 113 135 7 11 15 19 16 19 2 0 24 -28 49
-62z m1037 -525 l35 -237 -39 -66 c-60 -97 -80 -161 -79 -255 0 -131 58 -255
148 -318 70 -48 90 -65 84 -71 -3 -2 -58 2 -122 11 -104 14 -117 18 -122 37
-2 11 -19 118 -36 236 -18 118 -36 219 -41 224 -15 16 -29 -7 -75 -120 l-43
-108 -25 54 c-71 161 -116 250 -125 250 -19 0 -29 -35 -56 -207 -17 -105 -32
-173 -39 -173 -14 0 -188 30 -202 34 -7 3 -5 34 7 101 17 97 17 97 73 154 31
31 56 60 56 65 0 5 -18 25 -40 45 l-41 36 43 245 43 245 115 0 115 0 31 -168
c17 -92 34 -170 37 -173 22 -22 35 15 61 162 15 88 32 176 37 197 l10 37 77 0
77 0 36 -237z m-2174 12 c6 -95 11 -120 23 -120 8 0 66 72 130 160 64 88 120
160 126 160 6 0 56 -43 113 -96 l102 -96 -163 -173 c-90 -94 -163 -179 -163
-187 0 -11 49 -35 157 -77 152 -60 157 -63 195 -113 68 -91 174 -158 290 -184
l53 -12 0 -88 c0 -88 0 -88 -23 -80 -13 5 -191 93 -396 196 -206 102 -380 184
-387 181 -11 -4 -14 -46 -14 -214 l0 -209 -82 -11 c-45 -7 -83 -10 -86 -7 -3
2 -8 36 -11 75 -5 49 -3 77 6 92 31 56 53 152 53 234 0 100 -22 171 -75 245
-36 50 -36 51 -51 217 -8 92 -17 173 -19 181 -4 10 -17 12 -50 7 -43 -7 -45
-6 -45 18 0 21 7 27 58 41 31 9 98 29 147 44 l90 27 7 -45 c4 -25 11 -100 15
-166z m-1223 165 c185 -30 326 -171 326 -326 0 -146 -91 -311 -231 -419 -28
-22 -64 -50 -79 -63 l-28 -22 64 -252 c36 -138 63 -256 60 -263 -3 -9 -156
-65 -179 -65 -2 0 -105 224 -227 498 -122 273 -228 503 -235 510 -10 11 -21 9
-65 -13 -28 -14 -53 -25 -54 -23 -12 15 -137 229 -142 242 -5 13 17 27 107 70
133 64 211 91 329 116 95 21 262 25 354 10z m2378 -82 c30 -14 71 -40 91 -58
l37 -32 -33 -38 c-17 -21 -92 -102 -165 -180 -114 -120 -132 -143 -121 -156
26 -32 166 13 231 74 32 29 23 33 125 -60 l52 -48 -42 -36 c-103 -89 -289
-151 -428 -141 -199 13 -331 146 -330 331 1 113 33 190 110 259 121 109 335
148 473 85z m1838 -19 c85 -18 156 -33 158 -34 2 -2 30 -127 62 -280 32 -152
61 -279 64 -282 21 -22 38 23 90 239 31 128 60 238 64 245 5 8 36 5 116 -13
60 -13 111 -26 113 -28 3 -2 -79 -258 -182 -569 l-186 -565 -72 20 c-40 11
-76 24 -82 29 -6 6 -13 148 -18 347 -4 193 -12 341 -17 346 -7 7 -14 6 -20 0
-6 -6 -31 -125 -56 -265 -25 -139 -47 -255 -48 -257 -7 -6 -171 24 -168 31 1
4 2 32 2 62 0 52 3 58 51 111 63 69 116 179 131 268 19 112 -15 239 -87 324
-25 29 -25 34 -18 114 4 46 8 88 8 93 0 6 -16 15 -35 21 -29 10 -36 17 -38 43
-2 17 0 31 5 31 4 0 78 -14 163 -31z m-274 -289 c105 -45 160 -140 151 -263
-19 -280 -373 -460 -562 -286 -125 115 -118 300 15 443 112 119 268 161 396
106z m-3069 -86 c59 -28 97 -69 126 -133 29 -66 21 -195 -17 -278 -33 -73
-126 -167 -198 -202 -289 -138 -547 121 -406 409 95 194 323 288 495 204z
m773 16 c0 -19 -20 -27 -33 -13 -8 7 11 33 24 33 5 0 9 -9 9 -20z m-2209 -477
c58 -124 146 -351 158 -406 14 -61 -1 -136 -35 -168 -24 -23 -32 -63 -15 -74
16 -9 4 -90 -20 -136 -27 -54 -70 -121 -84 -131 -15 -12 -55 39 -55 70 0 15
-11 59 -25 97 -13 39 -25 86 -25 105 0 19 -4 52 -9 72 -5 21 -5 122 0 230 19
416 21 428 56 428 8 0 31 -36 54 -87z m2971 -33 c-2 -63 -1 -66 25 -77 48 -20
103 -32 258 -53 120 -17 158 -19 187 -10 46 13 71 2 93 -40 10 -20 23 -30 38
-30 26 0 67 -33 67 -54 0 -22 44 -53 84 -59 36 -6 55 -20 56 -40 0 -5 -4 -6
-9 -3 -5 4 -11 2 -13 -3 -1 -5 -23 -12 -48 -14 -25 -3 -58 -10 -73 -16 -39
-15 -66 -14 -83 4 -9 8 -25 15 -36 15 -11 0 -27 8 -35 18 -10 13 -13 14 -12 2
5 -36 -27 -69 -125 -128 -57 -35 -125 -69 -152 -76 -27 -8 -60 -18 -74 -24
-34 -13 -90 -66 -90 -85 0 -21 44 -54 83 -63 18 -3 61 -21 97 -39 36 -18 97
-42 135 -55 39 -13 87 -31 108 -42 21 -10 63 -24 95 -29 71 -14 102 -29 150
-79 22 -21 52 -42 68 -46 16 -3 47 -17 69 -29 44 -25 271 -245 352 -340 27
-33 71 -85 97 -115 26 -30 53 -69 61 -87 16 -37 94 -137 138 -176 18 -15 92
-73 166 -129 137 -103 232 -192 264 -247 26 -44 4 -41 -64 9 -63 46 -210 140
-219 140 -3 0 -14 -6 -24 -13 -45 -33 39 -155 178 -257 26 -19 62 -55 81 -80
18 -25 47 -57 64 -73 17 -15 32 -32 32 -37 1 -6 3 -14 4 -20 1 -5 3 -14 4 -20
0 -5 14 -22 31 -36 27 -24 28 -29 17 -53 -21 -45 -15 -73 20 -96 18 -11 32
-23 33 -28 0 -4 20 -31 44 -61 24 -29 46 -64 49 -78 8 -30 47 -53 75 -44 26 9
45 63 44 130 0 36 -9 70 -31 116 -17 36 -31 73 -31 83 0 45 55 -6 98 -92 15
-31 44 -85 64 -121 127 -227 182 -440 181 -710 0 -204 -21 -294 -112 -480 -68
-141 -146 -254 -249 -365 -72 -77 -86 -86 -95 -61 -7 17 25 66 88 141 52 62
75 106 109 213 36 115 41 172 22 270 -21 112 -58 182 -96 182 -16 0 -60 -31
-60 -43 0 -2 -25 -45 -56 -93 -31 -49 -76 -131 -101 -182 -33 -69 -49 -92 -61
-90 -20 4 -20 20 -1 160 19 143 -7 235 -62 221 -19 -5 -34 -39 -44 -98 -8 -53
-64 -203 -123 -329 l-47 -101 -5 -345 c-6 -358 -9 -378 -50 -400 -25 -13 -57
-13 -66 1 -3 6 -1 68 5 137 17 201 20 314 10 334 -15 27 -37 22 -55 -14 -9
-18 -33 -57 -53 -87 -32 -48 -36 -61 -36 -122 -1 -38 -5 -72 -10 -76 -4 -5 -5
-3 -2 3 4 7 0 14 -8 17 -10 4 -12 1 -8 -10 4 -11 2 -14 -5 -9 -6 4 -20 -2 -31
-13 -10 -10 -27 -22 -38 -25 -70 -22 -183 -228 -183 -333 0 -38 -40 -60 -110
-61 -73 -2 -156 -27 -234 -72 -62 -35 -80 -28 -89 34 -4 22 -10 43 -15 48 -11
11 -380 -47 -425 -67 -18 -7 -44 -16 -59 -20 l-28 -5 0 -111 c0 -90 -3 -111
-16 -116 -32 -12 -662 313 -656 338 2 10 0 10 -12 0 -12 -10 -14 -9 -9 9 4 14
1 20 -8 18 -8 -2 -13 3 -11 11 3 13 -79 -45 -86 -61 -2 -5 -8 -6 -13 -3 -9 6
-89 -31 -89 -41 0 -3 14 -18 31 -33 31 -29 31 -29 36 -155 7 -150 7 -150 -96
-186 -90 -31 -98 -25 -82 61 6 35 7 67 3 71 -4 4 -103 23 -219 43 -160 27
-218 33 -238 25 -48 -18 -72 -12 -101 25 -14 19 -32 35 -38 35 -19 0 -37 39
-30 65 3 14 10 22 15 19 5 -3 9 -1 9 5 0 5 14 20 32 32 18 13 28 17 24 8 -4
-7 2 -3 14 11 12 14 18 18 14 10 -7 -13 -5 -13 9 -1 20 16 95 10 149 -13 53
-23 87 -20 173 14 42 17 93 32 113 35 21 3 88 29 149 60 138 68 172 70 237 13
21 -19 41 -24 31 -8 -3 6 0 10 7 10 8 0 9 3 3 8 -18 13 -36 57 -37 92 -1 32 9
45 79 100 13 10 3 61 -17 85 -15 18 -172 72 -247 85 -34 6 -88 20 -119 30 -31
11 -78 20 -104 20 -91 0 -281 85 -445 199 -67 47 -87 56 -125 56 -42 1 -47 5
-74 44 -35 52 -141 123 -356 239 -98 52 -145 87 -187 138 -86 104 -137 153
-215 209 -253 179 -366 279 -571 505 -104 115 -177 207 -241 305 -122 186
-138 217 -195 391 -77 235 -86 288 -86 514 1 178 3 203 27 290 39 144 104 268
224 431 169 229 243 293 260 225 8 -34 -35 -111 -109 -194 -82 -92 -104 -127
-122 -197 -18 -72 -19 -149 -1 -234 23 -104 71 -133 133 -78 21 18 53 43 71
56 17 12 32 27 32 33 0 19 81 197 96 209 20 17 47 -8 39 -35 -3 -12 -10 -97
-15 -189 -7 -141 -6 -175 7 -212 12 -36 19 -45 38 -45 26 0 27 4 39 113 3 26
22 104 41 173 l35 125 -7 297 c-5 163 -6 359 -3 434 6 151 14 171 73 184 25 5
34 2 49 -16 11 -13 16 -31 13 -41 -4 -10 -7 -133 -7 -274 0 -262 3 -285 40
-285 41 0 178 192 189 264 2 17 11 55 20 85 14 50 14 55 -1 67 -9 6 -26 10
-37 7 -20 -5 -52 14 -45 26 3 4 1 23 -3 42 -5 20 -4 45 2 59 14 36 16 40 26
88 4 23 10 44 12 45 65 43 90 58 122 72 20 10 37 22 37 27 0 6 -9 51 -21 100
-12 49 -19 92 -16 95 3 2 38 -11 79 -31 141 -70 280 -65 424 14 94 52 103 49
119 -42 7 -42 5 -42 89 -28 34 5 112 17 174 25 107 15 237 56 254 80 4 5 8 56
8 113 0 75 3 102 13 102 14 0 422 -202 567 -280 98 -54 175 -86 165 -70 -3 5
0 14 7 20 7 6 26 21 41 34 l29 23 -1 154 c-1 85 2 159 6 166 12 17 125 62 153
60 24 -2 25 -4 22 -67z m2388 -470 c0 -5 -9 -10 -20 -10 -18 0 -20 -7 -20 -55
0 -70 -18 -72 -22 -2 -3 45 -6 52 -25 55 -45 7 -22 22 32 22 30 0 55 -4 55
-10z m51 -27 c18 -58 21 -59 38 -13 25 68 41 63 41 -14 0 -69 -19 -95 -21 -28
l-1 37 -12 -34 c-17 -48 -30 -48 -49 -4 l-15 38 -1 -37 c-2 -66 -21 -41 -21
27 0 76 20 90 41 28z m347 -39 c-4 -3 3 -15 13 -25 23 -23 22 -47 -3 -63 -13
-8 -22 -5 -43 14 -35 32 -34 67 3 73 15 2 29 5 31 6 2 0 2 -2 -1 -5z m-6370
-4121 c6 -16 16 -48 23 -73 34 -136 73 -197 140 -224 22 -9 54 -31 70 -48 l29
-32 0 62 c0 66 19 89 21 25 l1 -38 15 38 c19 46 37 47 51 5 l10 -33 1 33 c1
22 6 32 16 32 13 0 15 -11 13 -62 -4 -77 -24 -85 -46 -19 -15 44 -15 44 -28
20 -7 -13 -13 -32 -14 -42 0 -10 -6 -20 -13 -23 -13 -5 4 -26 103 -130 34 -36
55 -111 45 -164 -4 -19 -72 -231 -151 -471 -79 -241 -144 -453 -144 -473 0
-41 -27 -31 268 -101 167 -40 207 -47 223 -37 28 18 45 15 56 -10 9 -20 41
-29 294 -85 274 -60 285 -62 299 -44 8 10 29 26 47 35 l32 16 3 133 3 132 65
8 c35 4 91 19 124 32 48 19 63 22 72 12 6 -6 25 -105 43 -218 18 -113 35 -219
40 -235 l7 -29 197 -3 c171 -2 198 0 203 13 14 36 58 45 223 45 l160 0 51 38
c37 27 53 47 60 74 6 20 15 40 19 43 5 3 36 -10 68 -29 32 -19 82 -41 111 -51
28 -9 52 -22 52 -28 0 -7 -56 -43 -125 -80 -69 -37 -125 -71 -125 -73 0 -14
233 -356 245 -360 38 -15 149 100 513 528 13 15 12 21 -12 49 -30 35 -30 46 1
66 23 16 29 11 244 -184 62 -57 120 -103 129 -103 10 0 23 7 30 15 16 19 57
19 75 1 12 -12 32 -8 137 26 68 21 182 57 253 78 297 89 313 102 300 243 -6
61 -4 79 10 100 9 15 14 31 11 36 -14 22 13 19 28 -4 12 -18 25 -25 49 -25 60
0 105 -55 56 -67 -11 -3 -17 -9 -12 -12 4 -3 17 -17 28 -31 l20 -24 -27 17
c-31 20 -44 8 -22 -19 9 -10 12 -13 8 -5 -5 10 -1 11 17 5 13 -4 40 -7 60 -7
31 1 44 -6 93 -56 l58 -58 -18 -34 c-10 -19 -17 -37 -16 -41 1 -4 -3 -20 -9
-35 -6 -15 -10 -29 -10 -30 0 -2 -17 -21 -39 -44 -21 -22 -57 -75 -80 -118
-23 -42 -65 -110 -93 -153 -29 -42 -64 -98 -79 -125 -117 -206 -133 -226 -177
-221 -15 2 -27 10 -29 20 -2 9 25 61 60 115 62 95 128 226 128 252 0 8 12 36
27 63 22 41 25 53 15 69 -10 15 -10 19 0 17 12 -3 14 3 17 38 0 8 5 13 10 10
12 -8 31 39 21 54 -10 17 -25 6 -44 -30 -8 -17 -10 -28 -5 -25 5 4 9 -1 9 -10
0 -10 -5 -13 -12 -9 -6 4 -8 3 -4 -4 6 -10 -38 -52 -56 -52 -5 0 -27 -18 -48
-40 -21 -22 -43 -40 -49 -40 -6 0 -11 -5 -11 -11 0 -5 -4 -8 -9 -4 -5 3 -13
-4 -16 -16 -17 -54 -84 -99 -229 -154 -54 -21 -117 -53 -140 -71 -40 -33 -111
-76 -131 -80 -5 -1 -30 -7 -55 -14 -25 -7 -56 -14 -70 -17 -48 -8 -105 -25
-117 -34 -32 -27 -117 -29 -958 -29 -2283 1 -2731 4 -2749 20 -17 13 -18 81
-12 1245 3 676 9 1268 14 1313 8 76 18 101 43 102 4 0 11 -12 17 -27z m5742
-32 c12 -24 13 -88 1 -95 -4 -3 -7 -16 -4 -28 5 -33 -27 -68 -70 -75 -32 -5
-38 -3 -45 17 -20 55 29 184 73 193 11 2 23 5 27 6 4 0 12 -8 18 -18z m-5280
-272 c0 -42 3 -52 20 -56 38 -10 20 -23 -31 -23 -36 0 -49 4 -46 13 2 6 10 12
18 12 10 0 15 15 17 53 4 67 22 68 22 1z m5024 -589 c120 -267 224 -495 232
-508 l15 -22 50 26 c33 16 55 22 61 16 22 -22 146 -238 141 -246 -10 -15 -205
-104 -298 -135 -139 -46 -260 -64 -390 -58 -131 7 -191 24 -272 76 -180 116
-209 305 -80 510 42 66 146 172 209 212 27 17 48 38 48 48 0 9 -29 126 -65
261 -35 135 -60 248 -56 253 12 12 176 65 182 58 4 -3 104 -224 223 -491z
m252 458 c13 -26 15 -48 10 -117 -11 -131 -35 -154 -82 -79 -34 54 -41 105
-19 148 14 28 61 80 71 80 2 0 11 -14 20 -32z m-4965 -13 l66 -17 6 -172 c4
-94 7 -227 7 -296 0 -157 8 -230 26 -230 17 0 26 35 70 290 20 118 40 219 45
224 4 5 42 3 90 -4 l81 -13 -6 -65 c-6 -59 -11 -69 -56 -119 -92 -105 -136
-227 -128 -362 5 -86 35 -164 85 -221 l30 -35 -9 -84 c-5 -46 -7 -90 -4 -96 2
-7 18 -16 35 -20 37 -8 41 -13 34 -46 l-5 -25 -161 31 -162 32 -60 283 c-36
169 -65 285 -72 287 -19 7 -28 -21 -87 -266 -30 -123 -57 -226 -61 -229 -5 -5
-212 35 -226 44 -5 3 322 1006 366 1123 3 7 11 11 18 9 6 -3 42 -13 78 -23z
m3334 -297 c6 -65 4 -79 -19 -128 -14 -30 -31 -88 -38 -128 -20 -119 13 -252
85 -338 22 -26 26 -45 39 -207 8 -97 18 -180 21 -184 4 -3 24 -1 47 5 39 10
40 9 40 -17 0 -26 -5 -29 -140 -69 -76 -23 -143 -42 -148 -42 -5 0 -13 62 -16
138 -8 162 -13 192 -31 192 -10 0 -161 -197 -247 -324 -5 -8 -218 181 -218
195 0 3 72 82 160 175 88 93 160 176 160 185 0 11 -45 34 -158 78 -130 50
-161 66 -175 90 -28 47 -132 137 -192 166 -31 14 -81 32 -111 38 l-54 11 0 88
c0 87 0 87 23 79 13 -5 191 -93 396 -195 204 -103 376 -184 382 -181 5 4 9 92
9 210 0 138 4 206 11 211 12 7 96 21 141 23 26 1 26 -1 33 -71z m-2331 47 c60
-8 110 -16 111 -17 2 -2 19 -107 38 -235 19 -128 38 -237 42 -243 13 -21 33
10 71 108 21 53 41 100 44 105 3 4 35 -55 70 -130 68 -148 84 -173 99 -158 6
6 23 90 39 187 15 98 32 181 36 185 6 7 204 -22 213 -31 2 -2 -3 -46 -12 -97
-16 -93 -17 -95 -71 -149 -30 -31 -54 -63 -54 -72 0 -9 17 -30 37 -46 l38 -30
-33 -198 c-18 -110 -38 -220 -43 -246 l-11 -48 -113 0 -114 0 -10 53 c-6 28
-20 104 -32 167 -20 109 -33 140 -52 121 -6 -6 -77 -373 -77 -398 0 -2 -36 -3
-80 -3 -44 0 -80 3 -80 6 0 3 -16 111 -36 239 l-35 233 30 49 c73 119 86 160
86 273 0 100 -2 109 -34 175 -37 75 -109 153 -160 175 -17 7 -31 19 -31 26 0
17 -9 17 124 -1z m2935 -21 c103 -55 146 -140 140 -272 -7 -140 -90 -262 -225
-328 -172 -86 -347 -44 -421 100 -23 43 -27 64 -27 136 -1 76 3 93 32 155 74
157 219 249 378 242 54 -3 82 -10 123 -33z m-3119 -105 c55 -25 105 -71 133
-124 17 -32 22 -57 22 -125 0 -73 -4 -93 -28 -143 -62 -125 -195 -218 -327
-225 -124 -7 -212 39 -263 138 -25 49 -28 63 -25 135 9 206 172 363 378 364
45 0 79 -6 110 -20z m1588 -250 c80 -27 160 -98 193 -171 33 -73 34 -211 2
-280 -75 -164 -291 -264 -482 -224 -78 16 -141 48 -180 90 l-24 26 54 59 c30
33 103 112 163 176 71 76 106 120 102 130 -13 36 -136 5 -212 -54 l-52 -39
-63 55 c-35 30 -68 59 -73 64 -13 12 16 41 79 84 147 97 351 132 493 84z m395
-266 c9 -9 -13 -34 -24 -27 -14 8 -11 34 4 34 8 0 17 -3 20 -7z m-473 -611 c0
-11 -211 -262 -220 -262 -8 0 -90 105 -90 115 0 5 290 154 303 154 4 1 7 -3 7
-7z m2323 -99 c-6 -17 -18 -29 -32 -31 -19 -3 -21 0 -17 25 6 32 35 58 49 44
6 -6 6 -20 0 -38z m-56 -154 c5 -30 -24 -89 -43 -89 -14 0 -15 7 -9 48 3 26
14 53 22 59 19 15 26 11 30 -18z m-76 -176 c1 -10 0 -22 -1 -28 -2 -13 -10
-45 -15 -65 -2 -8 -4 -23 -4 -32 -1 -11 -6 -15 -16 -12 -8 4 -12 10 -9 15 3 5
0 9 -5 9 -6 0 -11 9 -11 21 0 11 4 18 9 15 5 -4 7 2 4 13 -5 21 22 81 37 81 6
0 11 -8 11 -17z m-61 -203 c0 -5 -9 -14 -20 -20 -14 -7 -20 -7 -20 0 0 5 7 10
15 10 8 0 15 5 15 10 0 6 2 10 5 10 3 0 5 -4 5 -10z"/>
<path d="M7129 9544 c-7 -8 -16 -11 -23 -6 -16 12 -55 9 -64 -4 -4 -7 -21 -9
-39 -7 -18 3 -31 8 -29 12 5 8 -68 6 -83 -3 -6 -4 -11 -13 -10 -19 0 -9 2 -9
6 1 2 6 11 12 20 12 12 0 12 -2 -1 -16 -16 -16 -12 -39 5 -29 5 4 9 1 9 -6 0
-7 3 -10 6 -6 4 3 23 0 42 -9 48 -20 117 -11 144 18 11 13 16 17 12 9 -5 -9
-3 -12 5 -7 7 4 9 17 6 29 -5 17 -4 19 4 7 6 -8 15 -16 21 -16 5 -1 11 -2 13
-4 3 -2 26 -7 72 -15 22 -4 51 -13 65 -20 39 -19 74 -25 90 -15 13 8 13 11 -1
25 -17 18 -130 60 -180 68 -19 3 -44 8 -56 11 -12 2 -27 -2 -34 -10z m-199
-42 c0 -5 -7 -9 -15 -9 -8 0 -12 4 -9 9 3 4 9 8 15 8 5 0 9 -4 9 -8z"/>
<path d="M2890 8394 c-91 -25 -91 -16 -25 -232 32 -105 61 -196 65 -202 14
-22 55 -2 123 60 80 74 101 120 95 212 -4 75 -30 119 -86 147 -54 27 -109 32
-172 15z m122 -131 c11 -10 17 -28 17 -47 -2 -29 -2 -29 -6 -4 -6 36 -31 57
-45 37 -8 -11 -9 -11 -5 3 3 9 1 19 -6 22 -7 2 -3 5 7 5 11 1 28 -6 38 -16z"/>
<path d="M5052 8479 c-127 -64 -161 -226 -68 -324 18 -19 40 -35 48 -35 18 0
262 275 266 300 2 13 -10 28 -39 47 -57 38 -146 43 -207 12z m71 -106 c-7 -22
-64 -83 -76 -83 -11 0 0 50 16 69 10 12 42 29 59 30 4 1 5 -7 1 -16z"/>
<path d="M6692 8233 c-18 -8 -46 -31 -62 -50 -57 -64 -35 -180 43 -231 54 -36
144 -38 197 -5 63 39 101 145 70 193 -8 13 -10 13 -10 -2 0 -26 -48 -76 -80
-83 -40 -9 -95 11 -120 42 -31 39 -26 79 14 119 l34 34 -26 0 c-15 0 -42 -8
-60 -17z"/>
<path d="M3613 8139 c-76 -37 -108 -117 -78 -195 42 -111 191 -146 284 -68 39
32 65 102 57 149 -7 36 -26 49 -26 17 0 -22 -47 -67 -78 -75 -34 -8 -85 10
-112 38 -36 38 -33 90 8 126 30 27 31 29 10 29 -13 0 -42 -9 -65 -21z"/>
<path d="M5849 7440 c-19 -10 -42 -26 -50 -36 -12 -15 -11 -19 10 -33 13 -9
35 -27 49 -39 15 -14 23 -18 19 -9 -3 9 1 21 9 28 25 20 46 69 39 89 -8 25
-30 25 -76 0z"/>
<path d="M5134 7268 c-4 -6 -3 -8 4 -4 6 3 14 2 17 -4 4 -6 3 -10 -2 -9 -15 4
-63 -13 -58 -20 2 -4 -1 -8 -8 -8 -33 -2 -71 -14 -87 -28 -20 -18 -15 -65 6
-65 8 0 17 -6 20 -14 4 -12 21 -14 77 -10 83 5 110 12 102 25 -4 5 -2 9 3 9 6
0 9 19 8 41 -2 30 -9 46 -27 60 -13 10 -19 19 -14 19 11 0 -15 20 -27 20 -4 0
-10 -5 -14 -12z"/>
<path d="M4930 6743 c-390 -42 -866 -296 -1065 -568 l-29 -39 36 28 c43 32
124 60 134 45 4 -6 11 -6 20 2 11 9 15 8 20 -5 3 -9 10 -13 15 -10 5 3 8 2 7
-3 -1 -4 5 -21 14 -38 30 -57 2 -150 -76 -250 -39 -51 -108 -115 -117 -110 -4
3 -12 -2 -19 -10 -7 -8 -17 -12 -23 -8 -6 4 -7 1 -3 -6 6 -9 13 -8 29 5 15 13
14 10 -3 -8 -32 -35 -97 -63 -97 -43 0 8 4 12 9 9 5 -3 16 0 25 8 9 7 18 12
20 11 1 -2 9 -3 16 -3 8 0 7 3 -3 10 -9 5 -19 5 -26 -1 -7 -5 -14 -6 -16 -2
-3 4 -3 1 -1 -7 2 -8 -6 -3 -18 13 -11 15 -28 27 -37 27 -8 0 -13 3 -9 6 3 4
0 12 -7 19 -19 19 -20 109 -1 145 26 51 9 33 -32 -32 -62 -100 -119 -226 -143
-317 -12 -46 -35 -104 -50 -130 -41 -66 -47 -117 -21 -176 25 -56 25 -63 7
-84 -17 -20 -31 -81 -19 -81 5 0 20 11 33 25 13 14 47 41 76 61 50 35 61 54
29 54 -23 0 -55 64 -55 111 0 59 32 120 94 176 70 64 149 103 206 103 25 -1
57 -1 73 -1 19 0 27 -5 27 -17 0 -9 7 -37 16 -61 22 -66 -4 -182 -49 -220 -11
-8 -14 -18 -9 -25 5 -6 12 -29 15 -51 18 -114 120 -241 245 -302 66 -33 84
-37 175 -42 177 -10 289 31 408 149 78 77 110 126 135 203 l18 57 70 0 71 0
-31 19 c-66 40 -99 168 -67 260 24 70 60 91 156 91 69 0 287 -40 472 -86 142
-36 622 -197 697 -235 166 -83 309 -203 350 -295 17 -39 19 -58 13 -125 -7
-80 -13 -91 -35 -64 -12 14 -70 22 -70 9 0 -3 17 -26 38 -50 21 -23 54 -71 72
-106 18 -35 38 -66 43 -69 5 -4 7 -24 3 -45 -5 -34 -4 -36 5 -14 6 14 9 49 6
78 -2 33 0 48 5 40 6 -8 7 2 3 27 -3 22 -6 54 -5 70 0 17 3 102 6 189 6 177
-4 278 -42 431 -95 374 -308 692 -641 957 -179 142 -475 260 -746 297 -74 10
-269 12 -347 4z m783 -282 c11 -9 17 -9 22 -1 5 8 15 4 33 -12 14 -13 22 -17
18 -10 -7 11 -4 11 12 1 12 -7 18 -17 15 -23 -3 -5 -1 -6 4 -3 6 4 23 -5 39
-18 16 -14 33 -25 37 -25 5 0 6 -4 3 -8 -3 -5 6 -16 20 -26 13 -11 24 -24 24
-31 0 -7 7 -15 15 -19 8 -3 12 -12 9 -21 -4 -9 -1 -15 7 -15 11 0 11 -3 -1
-10 -11 -7 -11 -10 -2 -10 7 0 11 -4 7 -9 -3 -5 -1 -12 4 -15 10 -7 9 -25 -2
-43 -5 -8 -3 -13 5 -13 9 0 10 -3 2 -8 -6 -4 -10 -15 -8 -25 1 -10 -2 -14 -9
-10 -6 4 -8 0 -4 -10 3 -9 -1 -18 -10 -21 -8 -4 -13 -12 -10 -20 3 -8 -3 -22
-14 -32 -10 -9 -19 -13 -19 -9 0 4 -10 0 -22 -11 -13 -12 -18 -13 -13 -4 7 13
6 13 -7 2 -32 -26 -133 -34 -195 -16 -22 7 -44 10 -47 7 -3 -4 -6 -1 -6 5 0 7
-6 12 -14 12 -24 0 -104 79 -126 126 -23 46 -36 184 -18 184 5 0 6 5 3 10 -3
6 -2 10 3 10 5 0 9 6 9 13 0 7 8 25 17 40 17 25 28 31 48 28 4 0 5 7 1 17 -5
14 -4 15 8 4 11 -10 17 -8 32 10 10 13 15 16 11 8 -6 -13 -4 -13 10 1 20 18
87 19 109 0z m-939 -331 c54 -28 123 -97 138 -141 5 -16 16 -29 23 -29 7 0 16
-14 20 -31 9 -41 0 -48 -10 -7 -7 28 -10 20 -18 -54 -9 -88 -17 -100 -46 -75
-9 8 -36 19 -61 26 -25 7 -68 28 -96 46 -28 18 -93 55 -144 80 -51 26 -100 53
-107 61 -17 16 -51 17 -108 4 -22 -5 -41 -7 -43 -5 -2 2 29 20 69 40 40 21 85
49 100 64 38 38 82 51 165 47 49 -2 84 -10 118 -26z m166 -153 c0 -5 -4 -5
-10 -2 -5 3 -10 14 -10 23 0 15 2 15 10 2 5 -8 10 -19 10 -23z m-457 -163 c56
-19 122 -80 148 -137 26 -58 25 -169 -1 -239 -47 -125 -180 -221 -309 -222
-89 -1 -148 23 -204 82 -87 94 -101 221 -37 341 82 154 251 227 403 175z
m1745 -335 c86 -38 182 -98 182 -112 0 -7 -4 -6 -10 3 -5 8 -10 11 -10 5 0 -6
-4 -5 -8 1 -10 16 -128 74 -136 67 -3 -4 -6 -1 -6 6 0 7 -4 9 -10 6 -5 -3 -10
-1 -10 5 0 6 -4 8 -10 5 -5 -3 -10 -1 -10 5 0 6 -3 9 -8 6 -4 -2 -25 7 -47 20
-38 23 -38 24 -10 18 17 -4 58 -20 93 -35z"/>
<path d="M5919 6033 c-13 -16 -12 -17 4 -4 9 7 17 15 17 17 0 8 -8 3 -21 -13z"/>
<path d="M4500 5580 c0 -58 -18 -100 -64 -148 -44 -47 -82 -65 -143 -66 -63 0
-55 -16 11 -23 128 -15 241 105 221 234 -9 62 -25 64 -25 3z"/>
<path d="M2359 4929 c-28 -28 -21 -72 27 -164 80 -155 269 -378 389 -460 45
-31 56 -35 74 -26 26 14 26 25 1 65 -10 18 -33 72 -49 121 -17 48 -39 98 -49
109 -11 12 -63 85 -117 164 -83 122 -103 146 -140 163 -24 12 -49 27 -56 35
-17 21 -56 17 -80 -7z"/>
<path d="M6536 4198 l-18 -33 21 25 c18 22 26 40 18 40 -1 0 -11 -15 -21 -32z"/>
<path d="M6506 4145 c-9 -26 -7 -32 5 -12 6 10 9 21 6 23 -2 3 -7 -2 -11 -11z"/>
<path d="M4484 3396 c11 -9 27 -16 35 -15 14 0 14 1 1 6 -8 3 -24 10 -35 15
-20 9 -20 9 -1 -6z"/>
<path d="M4596 3350 c12 -12 131 -46 189 -54 94 -13 169 -18 162 -11 -4 5 -15
9 -25 10 -34 3 -109 18 -214 41 -121 27 -126 28 -112 14z"/>
<path d="M5320 3290 c-9 -6 -10 -10 -3 -10 6 0 15 5 18 10 8 12 4 12 -15 0z"/>
<path d="M4980 3285 c0 -8 29 -12 39 -5 9 5 4 8 -13 8 -14 0 -26 -2 -26 -3z"/>
<path d="M5165 3280 c-6 -10 66 -10 105 0 30 7 26 8 -33 8 -37 -1 -70 -4 -72
-8z"/>
<path d="M6990 1933 c-107 -81 -148 -141 -157 -228 -8 -72 21 -134 78 -172 37
-25 52 -28 118 -28 54 1 86 6 110 19 31 16 33 21 27 54 -13 81 -111 377 -126
379 -8 2 -31 -9 -50 -24z m16 -293 c15 -6 24 -13 21 -17 -12 -11 -65 19 -71
40 -11 41 -5 52 9 19 8 -18 26 -37 41 -42z"/>
<path d="M6200 2048 c-57 -29 -90 -84 -90 -150 0 -26 5 -50 10 -53 6 -3 10 1
10 9 0 9 13 30 29 48 26 29 35 33 81 33 46 0 55 -4 81 -33 42 -47 40 -90 -8
-132 l-37 -33 39 7 c53 10 111 48 131 88 22 43 15 125 -16 168 -48 67 -150 88
-230 48z"/>
<path d="M3135 1966 c-65 -28 -114 -120 -96 -181 l8 -30 11 26 c36 90 171 91
208 2 19 -45 6 -83 -40 -113 l-31 -21 40 6 c89 15 155 82 155 157 0 119 -141
204 -255 154z"/>
<path d="M4813 1641 c-73 -83 -133 -154 -133 -160 0 -17 62 -58 107 -71 127
-38 266 69 266 204 0 61 -30 125 -72 155 -16 12 -31 21 -33 21 -1 0 -63 -67
-135 -149z m127 -54 c0 -27 -34 -62 -67 -70 -31 -7 -29 3 13 51 40 48 54 52
54 19z"/>
</g>
</svg>
